<?xml version="1.0" standalone="no"?>
<!DOCTYPE svg PUBLIC "-//W3C//DTD SVG 20010904//EN"
 "http://www.w3.org/TR/2001/REC-SVG-20010904/DTD/svg10.dtd">
<svg version="1.0" xmlns="http://www.w3.org/2000/svg"
 width="204.000000pt" height="192.000000pt" viewBox="0 0 204.000000 192.000000"
 preserveAspectRatio="xMidYMid meet">

<g transform="translate(0.000000,192.000000) scale(0.100000,-0.100000)"
fill="#000000" stroke="none">
<path d="M985 1793 c-32 -8 -102 -65 -119 -98 -30 -59 -54 -132 -61 -188 l-7
-57 -142 0 c-77 0 -147 -4 -155 -9 -12 -8 -10 -63 14 -367 31 -417 37 -450 85
-482 l34 -23 414 3 414 3 29 34 c35 42 45 91 58 286 29 426 33 492 30 520 l-4
30 -150 5 -150 5 -6 51 c-9 70 -26 120 -61 178 -38 63 -48 72 -100 96 -42 19
-81 23 -123 13z m132 -76 c49 -32 103 -158 103 -239 l0 -28 -181 0 -182 0 5
64 c5 62 42 162 70 189 24 24 92 47 123 42 16 -3 44 -15 62 -28z m46 -433 c28
-13 37 -23 35 -39 -4 -24 -33 -25 -98 0 -54 20 -98 14 -140 -21 -64 -55 -25
-122 94 -165 128 -45 197 -122 182 -203 -22 -118 -190 -164 -327 -90 -54 29
-67 47 -50 73 8 12 15 10 46 -8 20 -11 41 -18 47 -15 6 4 8 2 4 -4 -4 -7 14
-15 48 -22 100 -20 176 21 176 95 0 33 -2 35 -76 94 -5 4 -37 18 -70 30 -32
13 -75 32 -94 44 -19 12 -38 21 -42 20 -4 -2 -5 3 -2 11 3 8 1 17 -5 21 -18
10 -13 107 6 135 17 25 45 49 73 62 27 13 153 2 193 -18z"/>
<path d="M503 458 c-25 -12 -37 -51 -24 -76 5 -10 29 -27 53 -37 58 -25 78
-44 78 -71 0 -26 -34 -54 -65 -54 -11 0 -33 7 -49 15 -33 17 -44 14 -21 -5 26
-22 103 -25 124 -6 47 43 30 87 -46 124 -51 24 -58 31 -58 57 0 39 39 60 80
45 15 -6 30 -8 33 -6 6 7 -45 26 -66 25 -9 0 -27 -5 -39 -11z"/>
<path d="M670 341 c0 -81 4 -131 10 -131 6 0 10 23 10 50 0 54 23 90 58 90 35
0 47 -19 53 -82 l6 -63 1 62 c2 44 -2 66 -14 77 -17 18 -69 22 -79 6 -15 -25
-25 -5 -25 49 0 33 -4 63 -10 66 -6 4 -10 -40 -10 -124z"/>
<path d="M886 339 c-54 -43 -23 -129 47 -129 70 0 104 87 51 129 -15 12 -37
21 -49 21 -12 0 -34 -9 -49 -21z m94 -11 c26 -28 26 -58 0 -86 -29 -30 -75
-29 -96 3 -43 66 42 140 96 83z"/>
<path d="M1062 240 c1 -69 3 -99 5 -67 4 51 6 58 21 51 80 -34 157 21 121 88
-24 46 -67 60 -111 37 -16 -9 -23 -8 -29 2 -5 8 -8 -38 -7 -111z m116 94 c15
-10 22 -25 22 -49 0 -68 -87 -86 -117 -24 -30 61 37 114 95 73z"/>
<path d="M1282 337 c-31 -33 -25 -95 12 -119 16 -11 84 -10 90 1 4 5 -11 7
-32 4 -28 -4 -43 -1 -56 12 -31 32 -17 48 44 49 62 1 76 20 41 55 -28 28 -72
27 -99 -2z m96 -14 c14 -23 14 -23 -42 -23 -58 0 -67 8 -40 35 22 22 63 15 82
-12z"/>
<path d="M1461 329 c-10 -17 -18 -38 -16 -47 2 -10 4 -23 4 -29 2 -33 89 -59
113 -35 8 8 1 10 -24 6 -28 -5 -40 -2 -57 15 -35 35 -28 50 24 45 27 -2 45 0
45 6 0 5 -20 10 -45 10 -25 0 -45 4 -45 9 0 14 41 41 61 41 23 0 51 -34 43
-54 -3 -9 -1 -16 5 -16 18 0 13 45 -7 63 -10 10 -33 17 -50 17 -25 0 -36 -7
-51 -31z"/>
</g>
</svg>
